<?xml version="1.0" encoding="utf-8"?>
<!-- Generator: Adobe Illustrator 15.0.0, SVG Export Plug-In . SVG Version: 6.00 Build 0)  -->
<!DOCTYPE svg PUBLIC "-//W3C//DTD SVG 1.1//EN" "http://www.w3.org/Graphics/SVG/1.1/DTD/svg11.dtd">
<svg version="1.1" id="Layer_1" xmlns="http://www.w3.org/2000/svg" xmlns:xlink="http://www.w3.org/1999/xlink" x="0px" y="0px"
	 width="2304px" height="2304px" viewBox="0 0 2304 2304" enable-background="new 0 0 2304 2304" xml:space="preserve">
<g>
	<g>
		<path fill="#E5C030" d="M129.867,540.066c0-29.06,23.076-52.992,52.991-52.992h11.11c23.077,0,38.461,11.965,48.719,28.205
			l181.195,283.759l182.051-284.614c11.109-17.949,26.496-27.35,47.862-27.35h11.111c29.915,0,52.991,23.932,52.991,52.992v500.851
			c0,29.06-23.076,52.137-52.991,52.137c-28.204,0-52.136-23.931-52.136-52.137V681.945L466.616,901.603
			c-11.11,17.093-24.786,27.35-44.443,27.35c-18.803,0-32.479-10.257-43.589-27.35L233.285,683.654v358.119
			c0,29.059-23.078,51.281-52.137,51.281c-29.06,0-51.281-22.222-51.281-51.281V540.066z"/>
		<path fill="#E5C030" d="M632.424,540.066c0-29.06,23.077-52.992,52.991-52.992h11.111c23.077,0,38.462,11.965,48.719,28.205
			l181.196,283.759l182.05-284.614c11.11-17.949,26.495-27.35,47.862-27.35h11.111c29.916,0,52.992,23.932,52.992,52.992v500.851
			c0,29.06-23.076,52.137-52.992,52.137c-28.204,0-52.136-23.931-52.136-52.137V681.945L969.175,901.603
			c-11.113,17.093-24.786,27.35-44.446,27.35c-18.803,0-32.479-10.257-43.589-27.35L735.841,683.654v358.119
			c0,29.059-23.075,51.281-52.137,51.281c-29.059,0-51.281-22.222-51.281-51.281L632.424,540.066L632.424,540.066z"/>
		<path fill="#E5C030" d="M1134.98,540.066c0-29.06,23.076-52.992,52.992-52.992h11.111c23.076,0,38.461,11.965,48.715,28.205
			l181.197,283.759l182.051-284.614c11.111-17.949,26.494-27.35,47.863-27.35h11.111c29.914,0,52.992,23.932,52.992,52.992v500.851
			c0,29.06-23.078,52.137-52.992,52.137c-28.207,0-52.137-23.931-52.137-52.137V681.945L1471.73,901.603
			c-11.111,17.093-24.785,27.35-44.445,27.35c-18.801,0-32.479-10.257-43.588-27.35l-145.299-217.948v358.119
			c0,29.059-23.076,51.281-52.137,51.281c-29.059,0-51.281-22.222-51.281-51.281V540.066L1134.98,540.066z"/>
		<path fill="#E5C030" d="M1721.998,1035.79V543.484c0-29.915,23.078-52.991,52.992-52.991h347.861
			c25.643,0,47.012,21.368,47.012,47.008c0,26.496-21.369,47.008-47.012,47.008h-295.725v155.555h257.266
			c25.639,0,47.008,21.367,47.008,47.863c0,25.641-21.367,46.154-47.008,46.154h-257.264v160.683h299.998
			c25.641,0,47.006,21.368,47.006,47.009c0,26.495-21.365,47.007-47.006,47.007H1774.99
			C1745.076,1088.78,1721.998,1065.704,1721.998,1035.79z"/>
	</g>
	<g>
		<path fill="#81776F" d="M436.853,1694.607h146.426c17.856,0,32.434,5.664,43.749,16.964
			c11.299,11.314,16.963,25.893,16.963,43.749s-5.664,32.295-16.963,43.303c-11.315,11.007-25.893,16.518-43.749,16.518H247.572
			c-45.843,0-68.749-17.284-68.749-51.868c0-23.256,12.499-43.232,37.499-59.932c34.514-22.656,73.505-49.776,116.962-81.388
			c48.213-34.569,86.898-65.875,116.068-93.901c49.399-47.098,74.104-88.251,74.104-123.435c0-29.799-10.574-55.146-31.694-76.017
			c-21.136-20.87-46.582-31.305-76.338-31.305c-29.771,0-55.063,10.478-75.891,31.417c-20.843,20.954-31.25,46.385-31.25,76.295
			c0,17.954-5.664,32.616-16.963,43.986c-11.315,11.369-25.893,17.048-43.749,17.048c-17.857,0-32.296-5.665-43.303-17.02
			c-11.021-11.343-16.519-25.962-16.519-43.875c0-64.479,21.875-118.663,65.624-162.552s97.766-65.833,162.05-65.833
			s118.44,21.916,162.496,65.735c44.041,43.832,66.069,97.933,66.069,162.328c0,57.253-23.213,112.707-69.641,166.361
			C548.15,1601.6,502.323,1642.739,436.853,1694.607z"/>
		<path fill="#81776F" d="M1029.685,1176.763c89.282,0,164.866,30.998,226.78,92.995c61.898,61.995,92.854,137.691,92.854,227.087
			c0,89.409-30.955,165.104-92.854,227.101c-61.914,61.996-137.498,92.98-226.78,92.98c-89.284,0-164.882-30.984-226.78-92.98
			c-61.913-61.997-92.855-137.691-92.855-227.101c0-89.396,30.942-165.092,92.855-227.087
			C864.803,1207.761,940.4,1176.763,1029.685,1176.763z M1029.685,1297.296c-56.556,0-103.877,19.098-141.962,57.267
			c-38.099,38.183-57.141,85.615-57.141,142.282c0,56.08,19.196,103.359,57.588,141.835s85.558,57.714,141.515,57.714
			c55.941,0,103.122-19.238,141.515-57.714c38.391-38.476,57.588-85.755,57.588-141.835c0-56.068-19.197-103.346-57.588-141.821
			C1132.807,1316.548,1085.626,1297.296,1029.685,1297.296z"/>
		<path fill="#81776F" d="M1579.668,1236.667v518.57c0,17.884-5.664,32.351-16.963,43.372
			c-11.314,11.006-25.893,16.531-43.75,16.531s-32.295-5.525-43.303-16.531c-11.02-11.021-16.518-25.488-16.518-43.372v-518.57
			c0-17.885,5.498-32.338,16.518-43.358c11.008-11.021,25.445-16.546,43.303-16.546s32.436,5.524,43.75,16.546
			C1574.004,1204.329,1579.668,1218.782,1579.668,1236.667z"/>
		<path fill="#81776F" d="M1732.338,1176.763h283.922c39.285,0,58.928,18.484,58.928,55.439c0,30.412-16.67,93.888-49.998,190.453
			l-121.426,351.414c-9.529,27.985-27.984,41.964-55.355,41.964c-17.271,0-32.004-5.496-44.195-16.477
			c-12.207-10.979-18.303-25.082-18.303-42.298c0-6.527,1.381-13.351,4.17-20.479l143.566-439.484h-201.209
			c-17.887,0-32.352-5.65-43.373-16.964c-11.035-11.3-16.545-25.893-16.545-43.749s5.496-32.282,16.516-43.303
			C1700.043,1182.273,1714.482,1176.763,1732.338,1176.763z"/>
	</g>
</g>
</svg>
