<?xml version="1.0" encoding="utf-8"?>
<!-- Generator: Adobe Illustrator 17.0.0, SVG Export Plug-In . SVG Version: 6.00 Build 0)  -->
<!DOCTYPE svg PUBLIC "-//W3C//DTD SVG 1.1//EN" "http://www.w3.org/Graphics/SVG/1.1/DTD/svg11.dtd">
<svg version="1.1" id="Layer_1" xmlns="http://www.w3.org/2000/svg" xmlns:xlink="http://www.w3.org/1999/xlink" x="0px" y="0px"
	 width="2304px" height="2304px" viewBox="0 0 2304 2304" enable-background="new 0 0 2304 2304" xml:space="preserve">
<g>
	<path fill="#E6C134" d="M61.792,516.115c0-30.533,24.247-55.678,55.678-55.678h11.675c24.247,0,40.411,12.572,51.188,29.635
		l190.383,298.147l191.281-299.045c11.674-18.859,27.839-28.737,50.29-28.737h11.675c31.431,0,55.678,25.145,55.678,55.678v526.247
		c0,30.533-24.247,54.78-55.678,54.78c-29.635,0-54.78-25.145-54.78-54.78V665.188L415.617,895.983
		c-11.675,17.96-26.043,28.737-46.697,28.737c-19.757,0-34.126-10.777-45.8-28.737L170.454,666.984v376.276
		c0,30.533-24.247,53.882-54.78,53.882c-30.533,0-53.882-23.349-53.882-53.882V516.115z"/>
	<path fill="#E6C134" d="M589.831,516.115c0-30.533,24.247-55.678,55.678-55.678h11.675c24.247,0,40.411,12.572,51.188,29.635
		l190.383,298.147l191.281-299.045c11.674-18.859,27.839-28.737,50.29-28.737h11.675c31.431,0,55.678,25.145,55.678,55.678v526.247
		c0,30.533-24.247,54.78-55.678,54.78c-29.635,0-54.78-25.145-54.78-54.78V665.188L943.655,895.983
		c-11.675,17.96-26.043,28.737-46.698,28.737c-19.757,0-34.126-10.777-45.8-28.737L698.492,666.984v376.276
		c0,30.533-24.247,53.882-54.78,53.882c-30.533,0-53.882-23.349-53.882-53.882V516.115z"/>
	<path fill="#E6C134" d="M1117.869,516.115c0-30.533,24.247-55.678,55.678-55.678h11.675c24.247,0,40.411,12.572,51.188,29.635
		l190.382,298.147l191.281-299.045c11.675-18.859,27.839-28.737,50.291-28.737h11.674c31.431,0,55.678,25.145,55.678,55.678v526.247
		c0,30.533-24.247,54.78-55.678,54.78c-29.636,0-54.781-25.145-54.781-54.78V665.188l-153.564,230.795
		c-11.674,17.96-26.042,28.737-46.697,28.737c-19.757,0-34.126-10.777-45.8-28.737l-152.665-228.999v376.276
		c0,30.533-24.247,53.882-54.78,53.882s-53.882-23.349-53.882-53.882V516.115z"/>
	<path fill="#E6C134" d="M1762.651,1036.974V519.707c0-31.431,24.248-55.678,55.679-55.678h365.499
		c26.941,0,49.393,22.451,49.393,49.392c0,27.839-22.451,49.392-49.393,49.392h-310.719v163.442h270.308
		c26.941,0,49.392,22.451,49.392,50.29c0,26.941-22.45,48.494-49.392,48.494h-270.308v168.83h315.21
		c26.94,0,49.391,22.451,49.391,49.392c0,27.839-22.451,49.392-49.391,49.392h-369.99
		C1786.899,1092.652,1762.651,1068.405,1762.651,1036.974z"/>
	<path fill="#81766F" d="M48.321,1725.922l193.077-164.34c86.211-72.741,117.643-113.153,117.643-169.729
		c0-61.964-44.004-97.885-101.478-97.885c-50.29,0-85.313,23.349-123.928,70.047c-8.082,8.98-20.654,17.062-38.615,17.062
		c-27.839,0-50.29-22.451-50.29-50.29c0-11.674,4.49-24.247,12.572-34.126c51.188-63.76,109.56-101.478,208.344-101.478
		c123.03,0,207.446,75.435,207.446,187.689v1.795c0,98.784-52.086,152.667-163.442,243.367L180.332,1735.8h255.041
		c26.941,0,48.494,21.553,48.494,48.494c0,26.94-21.553,48.493-48.494,48.493H78.854c-34.125,0-59.27-19.757-59.27-52.086
		C19.584,1759.149,29.463,1741.188,48.321,1725.922z"/>
	<path fill="#81766F" d="M654.484,1520.272v-1.796c0-179.606,109.56-325.088,274.798-325.088
		c164.34,0,273.002,143.686,273.002,323.293v1.795c0,179.607-109.56,325.088-274.798,325.088
		C762.248,1843.563,654.484,1699.879,654.484,1520.272z M1088.234,1520.272v-1.796c0-123.928-63.76-225.406-160.748-225.406
		c-96.988,0-158.952,98.783-158.952,223.61v1.795c0,123.929,62.863,225.407,160.748,225.407
		C1027.167,1743.882,1088.234,1643.303,1088.234,1520.272z"/>
	<path fill="#81766F" d="M1480.681,1308.336l-64.659,19.757c-6.286,1.796-14.369,2.695-19.757,2.695
		c-26.043,0-48.493-21.553-48.493-46.698c0-23.348,14.369-41.309,36.819-47.595l95.191-30.534
		c21.553-6.286,37.717-9.878,53.882-9.878h1.795c31.431,0,54.781,24.247,54.781,54.78v531.636c0,30.533-24.247,54.78-54.781,54.78
		c-29.635,0-54.78-24.247-54.78-54.78V1308.336z"/>
	<path fill="#81766F" d="M1875.811,1777.11c-47.596-47.596-76.333-113.153-76.333-239.774v-1.796
		c0-192.179,91.6-342.151,269.41-342.151c64.659,0,115.846,17.063,157.156,44.902c17.062,10.777,27.839,25.145,27.839,47.596
		c0,28.737-24.247,51.188-52.984,51.188c-9.878,0-19.757-3.593-27.838-8.083c-34.126-22.45-65.557-35.023-107.765-35.023
		c-93.395,0-145.481,84.414-150.869,199.362c33.227-32.329,76.333-62.862,150.869-62.862c121.235,0,219.12,71.843,219.12,197.567
		v1.796c0,124.826-101.478,213.731-233.488,213.731C1973.697,1843.563,1918.018,1819.317,1875.811,1777.11z M2173.957,1634.322
		v-1.796c0-62.862-50.29-109.559-128.419-109.559c-78.128,0-127.521,50.29-127.521,110.457v1.796
		c0,63.76,52.086,112.254,130.215,112.254C2126.362,1747.474,2173.957,1698.98,2173.957,1634.322z"/>
</g>
</svg>
